<mxfile host="app.diagrams.net" agent="Mozilla/5.0 (Windows NT 10.0; Win64; x64) AppleWebKit/537.36 (KHTML, like Gecko) Chrome/131.0.0.0 Safari/537.36" version="24.9.1">
  <diagram name="Page-1" id="ku-hvIbtYjoT68uOG_2I">
    <mxGraphModel grid="1" page="1" gridSize="10" guides="1" tooltips="1" connect="1" arrows="1" fold="1" pageScale="1" pageWidth="850" pageHeight="1100" math="0" shadow="0">
      <root>
        <mxCell id="0" />
        <mxCell id="1" parent="0" />
        <mxCell id="wzXU7J7Nh2qDfcFilz70-1" value="AWS Cloud" style="sketch=0;outlineConnect=0;gradientColor=none;html=1;whiteSpace=wrap;fontSize=22;fontStyle=1;shape=mxgraph.aws4.group;grIcon=mxgraph.aws4.group_region;strokeColor=#879196;fillColor=none;verticalAlign=top;align=left;spacingLeft=30;fontColor=#879196;dashed=1;" vertex="1" parent="1">
          <mxGeometry x="250" y="140" width="530" height="590" as="geometry" />
        </mxCell>
        <mxCell id="wzXU7J7Nh2qDfcFilz70-2" value="Client" style="sketch=0;outlineConnect=0;fontColor=#232F3E;gradientColor=none;strokeColor=#232F3E;fillColor=#ffffff;dashed=0;verticalLabelPosition=bottom;verticalAlign=top;align=center;html=1;fontSize=12;fontStyle=0;aspect=fixed;shape=mxgraph.aws4.resourceIcon;resIcon=mxgraph.aws4.client;" vertex="1" parent="1">
          <mxGeometry x="50" y="320" width="120" height="120" as="geometry" />
        </mxCell>
        <mxCell id="wzXU7J7Nh2qDfcFilz70-3" value="" style="sketch=0;points=[[0,0,0],[0.25,0,0],[0.5,0,0],[0.75,0,0],[1,0,0],[0,1,0],[0.25,1,0],[0.5,1,0],[0.75,1,0],[1,1,0],[0,0.25,0],[0,0.5,0],[0,0.75,0],[1,0.25,0],[1,0.5,0],[1,0.75,0]];outlineConnect=0;fontColor=#232F3E;fillColor=#8C4FFF;strokeColor=#ffffff;dashed=0;verticalLabelPosition=bottom;verticalAlign=top;align=center;html=1;fontSize=12;fontStyle=0;aspect=fixed;shape=mxgraph.aws4.resourceIcon;resIcon=mxgraph.aws4.cloudfront;" vertex="1" parent="1">
          <mxGeometry x="330" y="330" width="100" height="100" as="geometry" />
        </mxCell>
        <mxCell id="wzXU7J7Nh2qDfcFilz70-5" value="" style="sketch=0;outlineConnect=0;fontColor=#232F3E;gradientColor=none;fillColor=#7AA116;strokeColor=none;dashed=0;verticalLabelPosition=bottom;verticalAlign=top;align=center;html=1;fontSize=12;fontStyle=0;aspect=fixed;pointerEvents=1;shape=mxgraph.aws4.bucket;" vertex="1" parent="1">
          <mxGeometry x="640" y="332" width="94.23" height="98" as="geometry" />
        </mxCell>
        <mxCell id="wzXU7J7Nh2qDfcFilz70-6" value="" style="endArrow=classic;html=1;rounded=0;entryX=0;entryY=0.5;entryDx=0;entryDy=0;entryPerimeter=0;" edge="1" parent="1" source="wzXU7J7Nh2qDfcFilz70-2" target="wzXU7J7Nh2qDfcFilz70-3">
          <mxGeometry width="50" height="50" relative="1" as="geometry">
            <mxPoint x="400" y="420" as="sourcePoint" />
            <mxPoint x="450" y="370" as="targetPoint" />
          </mxGeometry>
        </mxCell>
        <mxCell id="wzXU7J7Nh2qDfcFilz70-7" value="" style="endArrow=classic;html=1;rounded=0;" edge="1" parent="1">
          <mxGeometry width="50" height="50" relative="1" as="geometry">
            <mxPoint x="429.99" y="380.0028054637513" as="sourcePoint" />
            <mxPoint x="639.9979568513515" y="380.6866143198846" as="targetPoint" />
          </mxGeometry>
        </mxCell>
        <mxCell id="wzXU7J7Nh2qDfcFilz70-8" value="" style="sketch=0;points=[[0,0,0],[0.25,0,0],[0.5,0,0],[0.75,0,0],[1,0,0],[0,1,0],[0.25,1,0],[0.5,1,0],[0.75,1,0],[1,1,0],[0,0.25,0],[0,0.5,0],[0,0.75,0],[1,0.25,0],[1,0.5,0],[1,0.75,0]];points=[[0,0,0],[0.25,0,0],[0.5,0,0],[0.75,0,0],[1,0,0],[0,1,0],[0.25,1,0],[0.5,1,0],[0.75,1,0],[1,1,0],[0,0.25,0],[0,0.5,0],[0,0.75,0],[1,0.25,0],[1,0.5,0],[1,0.75,0]];outlineConnect=0;fontColor=#232F3E;fillColor=#E7157B;strokeColor=#ffffff;dashed=0;verticalLabelPosition=bottom;verticalAlign=top;align=center;html=1;fontSize=12;fontStyle=0;aspect=fixed;shape=mxgraph.aws4.resourceIcon;resIcon=mxgraph.aws4.cloudwatch_2;" vertex="1" parent="1">
          <mxGeometry x="463" y="590" width="104" height="104" as="geometry" />
        </mxCell>
        <mxCell id="wzXU7J7Nh2qDfcFilz70-10" value="" style="endArrow=none;dashed=1;html=1;rounded=0;" edge="1" parent="1">
          <mxGeometry width="50" height="50" relative="1" as="geometry">
            <mxPoint x="690" y="540" as="sourcePoint" />
            <mxPoint x="690" y="429.9969264069267" as="targetPoint" />
          </mxGeometry>
        </mxCell>
        <mxCell id="wzXU7J7Nh2qDfcFilz70-11" value="" style="endArrow=none;dashed=1;html=1;rounded=0;" edge="1" parent="1">
          <mxGeometry width="50" height="50" relative="1" as="geometry">
            <mxPoint x="380" y="540" as="sourcePoint" />
            <mxPoint x="380" y="430.0028571428571" as="targetPoint" />
          </mxGeometry>
        </mxCell>
        <mxCell id="wzXU7J7Nh2qDfcFilz70-12" value="" style="endArrow=none;dashed=1;html=1;rounded=0;" edge="1" parent="1">
          <mxGeometry width="50" height="50" relative="1" as="geometry">
            <mxPoint x="380" y="540" as="sourcePoint" />
            <mxPoint x="690" y="540.01" as="targetPoint" />
          </mxGeometry>
        </mxCell>
        <mxCell id="wzXU7J7Nh2qDfcFilz70-15" value="" style="endArrow=classic;html=1;rounded=0;dashed=1;dashPattern=8 8;entryX=0.5;entryY=0;entryDx=0;entryDy=0;entryPerimeter=0;" edge="1" parent="1" target="wzXU7J7Nh2qDfcFilz70-8">
          <mxGeometry width="50" height="50" relative="1" as="geometry">
            <mxPoint x="515" y="540" as="sourcePoint" />
            <mxPoint x="567" y="470" as="targetPoint" />
          </mxGeometry>
        </mxCell>
        <mxCell id="wzXU7J7Nh2qDfcFilz70-17" value="CloudFront" style="rounded=1;arcSize=9;align=center;spacingLeft=5;strokeColor=#4C9AFF;html=1;strokeWidth=2;fontSize=12" vertex="1" parent="1">
          <mxGeometry x="330" y="450" width="100" height="15" as="geometry" />
        </mxCell>
        <mxCell id="wzXU7J7Nh2qDfcFilz70-18" value="S3 Bucket" style="rounded=1;arcSize=9;align=center;spacingLeft=5;strokeColor=#4C9AFF;html=1;strokeWidth=2;fontSize=12" vertex="1" parent="1">
          <mxGeometry x="634.23" y="450" width="100" height="15" as="geometry" />
        </mxCell>
        <mxCell id="wzXU7J7Nh2qDfcFilz70-19" value="CloudWatch Metrics" style="rounded=1;arcSize=9;align=center;spacingLeft=5;strokeColor=#4C9AFF;html=1;strokeWidth=2;fontSize=12" vertex="1" parent="1">
          <mxGeometry x="456.5" y="700" width="117" height="15" as="geometry" />
        </mxCell>
        <mxCell id="wzXU7J7Nh2qDfcFilz70-22" value="&lt;b&gt;&lt;font style=&quot;font-size: 16px;&quot;&gt;Static website Architecture on AWS&lt;/font&gt;&lt;/b&gt;" style="rounded=1;arcSize=9;fillColor=#F7F8F9;align=center;spacingLeft=5;strokeColor=#DEE1E6;html=1;strokeWidth=2;fontSize=12" vertex="1" parent="1">
          <mxGeometry x="370" y="60" width="290" height="33" as="geometry" />
        </mxCell>
      </root>
    </mxGraphModel>
  </diagram>
</mxfile>
